<?xml version="1.0" encoding="UTF-8" standalone="no"?>
<svg width="400px" height="400px" viewBox="0 0 400 400" version="1.1" xmlns="http://www.w3.org/2000/svg" xmlns:xlink="http://www.w3.org/1999/xlink" xmlns:sketch="http://www.bohemiancoding.com/sketch/ns">
    <!-- Generator: Sketch 3.3.3 (12072) - http://www.bohemiancoding.com/sketch -->
    <title>ethJS/git-logo-icon</title>
    <desc>Created with Sketch.</desc>
    <defs>
        <linearGradient x1="4.51549941%" y1="80.4813474%" x2="130.481347%" y2="45.4845006%" id="linearGradient-1">
            <stop stop-color="#21212B" stop-opacity="0.385218524" offset="0%"></stop>
            <stop stop-color="#3C3C3F" offset="100%"></stop>
        </linearGradient>
        <filter x="-50%" y="-50%" width="200%" height="200%" filterUnits="objectBoundingBox" id="filter-2">
            <feOffset dx="2" dy="13" in="SourceAlpha" result="shadowOffsetOuter1"></feOffset>
            <feGaussianBlur stdDeviation="5.5" in="shadowOffsetOuter1" result="shadowBlurOuter1"></feGaussianBlur>
            <feColorMatrix values="0 0 0 0 0.72693038   0 0 0 0 0.745339453   0 0 0 0 0.75454402  0 0 0 0.215024909 0" in="shadowBlurOuter1" type="matrix" result="shadowMatrixOuter1"></feColorMatrix>
            <feOffset dx="0" dy="2" in="SourceAlpha" result="shadowOffsetOuter2"></feOffset>
            <feGaussianBlur stdDeviation="2" in="shadowOffsetOuter2" result="shadowBlurOuter2"></feGaussianBlur>
            <feColorMatrix values="0 0 0 0 0   0 0 0 0 0   0 0 0 0 0  0 0 0 0.35 0" in="shadowBlurOuter2" type="matrix" result="shadowMatrixOuter2"></feColorMatrix>
            <feMerge>
                <feMergeNode in="shadowMatrixOuter1"></feMergeNode>
                <feMergeNode in="shadowMatrixOuter2"></feMergeNode>
                <feMergeNode in="SourceGraphic"></feMergeNode>
            </feMerge>
        </filter>
        <radialGradient cx="84.9968468%" cy="125.965848%" fx="84.9968468%" fy="125.965848%" r="130.737042%" id="radialGradient-3">
            <stop stop-color="#21212B" offset="0%"></stop>
            <stop stop-color="#3C3C3F" offset="100%"></stop>
        </radialGradient>
        <path id="path-4" d="M200.056978,170.000213 L196.830274,175.388671 L106.261995,224.845667 C104.128487,226.010721 102.418477,224.990021 102.442677,222.556362 L104.557323,9.89410474 C104.58148,7.4647026 106.294652,6.50107484 108.377666,7.73813969 L198.713883,61.3872017 L201.757115,66.8888969 L200.056978,170.000213 Z"></path>
        <linearGradient x1="50%" y1="0%" x2="84.9968468%" y2="125.965848%" id="linearGradient-5">
            <stop stop-color="#F9A03E" offset="0%"></stop>
            <stop stop-color="#B25D00" offset="100%"></stop>
        </linearGradient>
        <filter x="-50%" y="-50%" width="200%" height="200%" filterUnits="objectBoundingBox" id="filter-6">
            <feOffset dx="2" dy="4" in="SourceAlpha" result="shadowOffsetOuter1"></feOffset>
            <feGaussianBlur stdDeviation="5.5" in="shadowOffsetOuter1" result="shadowBlurOuter1"></feGaussianBlur>
            <feColorMatrix values="0 0 0 0 0.72693038   0 0 0 0 0.745339453   0 0 0 0 0.75454402  0 0 0 0.119103827 0" in="shadowBlurOuter1" type="matrix" result="shadowMatrixOuter1"></feColorMatrix>
            <feOffset dx="0" dy="2" in="SourceAlpha" result="shadowOffsetOuter2"></feOffset>
            <feGaussianBlur stdDeviation="3.5" in="shadowOffsetOuter2" result="shadowBlurOuter2"></feGaussianBlur>
            <feColorMatrix values="0 0 0 0 0   0 0 0 0 0   0 0 0 0 0  0 0 0 0.35 0" in="shadowBlurOuter2" type="matrix" result="shadowMatrixOuter2"></feColorMatrix>
            <feMerge>
                <feMergeNode in="shadowMatrixOuter1"></feMergeNode>
                <feMergeNode in="shadowMatrixOuter2"></feMergeNode>
                <feMergeNode in="SourceGraphic"></feMergeNode>
            </feMerge>
        </filter>
        <filter x="-50%" y="-50%" width="200%" height="200%" filterUnits="objectBoundingBox" id="filter-7">
            <feOffset dx="2" dy="4" in="SourceAlpha" result="shadowOffsetOuter1"></feOffset>
            <feGaussianBlur stdDeviation="5.5" in="shadowOffsetOuter1" result="shadowBlurOuter1"></feGaussianBlur>
            <feColorMatrix values="0 0 0 0 0.72693038   0 0 0 0 0.745339453   0 0 0 0 0.75454402  0 0 0 0.119103827 0" in="shadowBlurOuter1" type="matrix" result="shadowMatrixOuter1"></feColorMatrix>
            <feOffset dx="0" dy="2" in="SourceAlpha" result="shadowOffsetOuter2"></feOffset>
            <feGaussianBlur stdDeviation="3.5" in="shadowOffsetOuter2" result="shadowBlurOuter2"></feGaussianBlur>
            <feColorMatrix values="0 0 0 0 0   0 0 0 0 0   0 0 0 0 0  0 0 0 0.35 0" in="shadowBlurOuter2" type="matrix" result="shadowMatrixOuter2"></feColorMatrix>
            <feMerge>
                <feMergeNode in="shadowMatrixOuter1"></feMergeNode>
                <feMergeNode in="shadowMatrixOuter2"></feMergeNode>
                <feMergeNode in="SourceGraphic"></feMergeNode>
            </feMerge>
        </filter>
    </defs>
    <g id="Page-1" stroke="none" stroke-width="1" fill="none" fill-rule="evenodd" sketch:type="MSPage">
        <g id="ethJS/git-logo-icon" sketch:type="MSArtboardGroup">
            <g id="Group" sketch:type="MSLayerGroup" transform="translate(97.000000, 79.000000)">
                <g>
                    <g id="Polygon-5-+-ethereum_icon-+-Rectangle-11-+-J-+-S-+-Oval-1-+-J-+-S">
                        <g id="Polygon-5-+-ethereum_icon-+-Rectangle-11-+-J-+-S">
                            <g>
                                <path d="M0.491588259,170.484315 C0.220484648,169.996822 0.00845620094,169.159394 0.0182129854,168.602245 L1.90533544,60.8406237 C1.91500111,60.2886787 2.15472535,59.4565662 2.43673957,58.9887419 L4.94313286,54.8309669 C5.22695359,54.3601458 5.84514561,53.7640367 6.3341026,53.4938847 L100.906418,1.24205569 C101.390809,0.97442666 102.233652,0.765302614 102.781129,0.774827779 L107.646811,0.859482407 C108.197795,0.869068587 109.024821,1.10464316 109.504021,1.39163941 L202.189214,56.901432 C202.663939,57.185748 203.267058,57.8087364 203.539656,58.2989167 L205.884674,62.5156847 C206.155778,63.0031782 206.367806,63.8406064 206.358049,64.3977547 L204.470927,172.159376 C204.461261,172.711321 204.221537,173.543434 203.939523,174.011258 L201.433129,178.169033 C201.149309,178.639854 200.531117,179.235963 200.04216,179.506115 L105.469844,231.757944 C104.985453,232.025573 104.14261,232.234697 103.595133,232.225172 L98.7294511,232.140518 C98.1784675,232.130931 97.3514417,231.895357 96.8722415,231.608361 L4.18704831,176.098568 C3.71232333,175.814252 3.10920397,175.191264 2.83660619,174.701083 L0.491588259,170.484315 Z" id="Polygon-5" stroke="url(#linearGradient-1)" stroke-width="3.13051187" fill="#EBF0F1" filter="url(#filter-2)" sketch:type="MSShapeGroup"></path>
                                <g id="Rectangle-11-+-J-+-S" transform="translate(74.668798, 115.982222)"></g>
                            </g>
                        </g>
                    </g>
                    <g id="Polygon-5">
                        <use fill="url(#radialGradient-3)" fill-rule="evenodd" sketch:type="MSShapeGroup" xlink:href="#path-4"></use>
                        <use fill="none" xlink:href="#path-4"></use>
                    </g>
                    <g id="ethereum_icon" transform="translate(24.223404, 63.745283)" sketch:type="MSShapeGroup">
                        <g id="Group">
                            <path d="M32.2200531,0 L0.00524756566,53.400105 L32.2200531,38.7682875 L32.2200531,0 Z" id="Shape" fill="#5A5C5E"></path>
                            <path d="M32.2200531,38.7682875 L0.00524756566,53.400105 L32.2200531,72.419895 L32.2200531,38.7682875 Z" id="Shape" fill="#2D2F2E"></path>
                            <path d="M64.4348587,53.400105 L32.2200531,0 L32.2200531,38.7682875 L64.4348587,53.400105 Z" id="Shape" fill="#232424"></path>
                            <path d="M32.2200531,72.419895 L64.4348587,53.400105 L32.2200531,38.7682875 L32.2200531,72.419895 Z" id="Shape" fill="#111111"></path>
                            <path d="M0.00524756566,59.4971325 L32.2200531,104.85 L32.2200531,78.5169225 L0.00524756566,59.4971325 Z" id="Shape" fill="#737779"></path>
                            <path d="M32.2148056,78.5169225 L32.2148056,104.85 L64.4453539,59.4971325 L32.2148056,78.5169225 Z" id="Shape" fill="#282B2B"></path>
                        </g>
                    </g>
                    <g id="Oval-1-+-J-+-S" transform="translate(122.117021, 97.330189)" fill="url(#linearGradient-5)" sketch:type="MSShapeGroup">
                        <g id="J-+-S" transform="translate(0.605666, 0.683184)">
                            <path d="M17.059091,1.4127463 L22.8714871,1.4127463 L22.8714871,26.1692485 C22.8714871,29.4222931 21.8349934,31.9975814 19.7619748,33.8951907 C17.6889562,35.7928 15.0259645,36.7415905 11.77292,36.7415905 C8.28068094,36.7415905 5.51403993,35.8725303 3.47291392,34.134384 C1.43178792,32.3962376 0.451105365,29.8528414 0.53083685,26.504119 L0.578675501,26.3606031 L6.19971706,26.3606031 C6.19971706,28.3379439 6.69005833,29.7890352 7.67075559,30.7139204 C8.65145285,31.6388056 10.0188273,32.1012413 11.77292,32.1012413 C13.3037645,32.1012413 14.5674895,31.5670483 15.5641331,30.4986464 C16.5607767,29.4302446 17.059091,27.9871263 17.059091,26.1692485 L17.059091,1.4127463 Z" id="J" filter="url(#filter-6)"></path>
                            <path d="M49.4889713,27.2934568 C49.4889713,25.8423438 48.9507919,24.6543625 47.8744168,23.7294773 C46.7980418,22.804592 44.8964744,21.975397 42.1696576,21.2418674 C38.2787612,20.2213044 35.2848889,18.869876 33.1879508,17.1875417 C31.0910128,15.5052073 30.0425595,13.3006648 30.0425595,10.5738481 C30.0425595,7.76729982 31.2026352,5.45512145 33.5228214,3.6372436 C35.8430076,1.81936575 38.8368799,0.910440462 42.5045282,0.910440462 C46.3316395,0.910440462 49.4052421,1.93896119 51.7254283,3.99603349 C54.0456145,6.05310579 55.165825,8.52474474 55.0860936,11.4110245 L55.0382549,11.5545404 L49.465052,11.5545404 C49.465052,9.76855518 48.8591018,8.32145044 47.6471832,7.2131828 C46.4352647,6.10491517 44.7051174,5.55078966 42.4566895,5.55078966 C40.3358321,5.55078966 38.7053477,6.01322534 37.5651874,6.93811056 C36.4250272,7.86299578 35.8549556,9.05895011 35.8549556,10.5260094 C35.8549556,11.8495521 36.4728654,12.9498301 37.7087034,13.8268764 C38.9445414,14.7039227 40.9896233,15.5331177 43.8440104,16.3144863 C47.5913902,17.319103 50.4377615,18.70641 52.3832097,20.4764489 C54.328658,22.2464879 55.3013675,24.5028551 55.3013675,27.2456181 C55.3013675,30.1478442 54.1412918,32.456036 51.8211056,34.170263 C49.5009194,35.8844899 46.4512358,36.7415905 42.6719635,36.7415905 C39.0362078,36.7415905 35.8469962,35.7808405 33.1042332,33.8593117 C30.3614701,31.9377829 29.0299743,29.3026969 29.1097058,25.9539746 L29.1575444,25.8104586 L34.7546666,25.8104586 C34.7546666,27.9313161 35.4881853,29.5139623 36.9552446,30.5584448 C38.4223039,31.6029272 40.3278578,32.1251606 42.6719635,32.1251606 C44.8247136,32.1251606 46.4990496,31.6906305 47.6950219,30.8215573 C48.8909942,29.9524842 49.4889713,28.7764624 49.4889713,27.2934568 L49.4889713,27.2934568 Z" id="S" filter="url(#filter-7)"></path>
                        </g>
                    </g>
                </g>
            </g>
        </g>
    </g>
</svg>